<svg xmlns="http://www.w3.org/2000/svg" viewBox="0 0 749.94 123.95"><defs><style>.cls-1{fill:#d8734b;}.cls-2{fill:#6697ad;}.cls-3{fill:#c1bdbc;}.cls-4{fill:#ab81ac;}.cls-5{fill:#515f6d;}.cls-6{fill:#d8a65b;}.cls-7{fill:#d36d75;}.cls-8{fill:#a6bc75;}</style></defs><title>duhastnicht</title><g id="Lag_2" data-name="Lag 2"><g id="Layer_1" data-name="Layer 1"><rect class="cls-1" x="10" y="108.14" width="23.55" height="5"/><rect class="cls-2" x="31.8" y="97.33" width="33.55" height="5"/><rect class="cls-3" x="75.35" y="97.33" width="63.55" height="5"/><rect class="cls-3" x="148.9" y="97.33" width="63.55" height="5"/><rect class="cls-4" x="52.02" y="86.51" width="63" height="5"/><rect class="cls-3" x="156.77" y="86.51" width="63" height="5"/><rect class="cls-3" x="127.1" y="75.7" width="23.55" height="5"/><rect class="cls-2" x="160.65" y="75.7" width="19.16" height="5"/><rect class="cls-5" x="256.14" y="75.7" width="54.17" height="5"/><rect class="cls-3" x="340.14" y="75.7" width="54.17" height="5"/><rect class="cls-5" x="329.81" y="64.88" width="93.67" height="5"/><rect class="cls-4" x="359.27" y="86.51" width="44.17" height="5"/><rect class="cls-5" x="413.44" y="86.51" width="53.87" height="5"/><rect class="cls-6" x="189.81" y="75.7" width="17.16" height="5"/><rect class="cls-3" x="304.1" y="32.44" width="17.16" height="5"/><rect class="cls-3" x="211.5" y="43.26" width="41.98" height="5"/><rect class="cls-3" x="216.98" y="75.7" width="29.16" height="5"/><rect class="cls-5" x="242.66" y="64.88" width="29.16" height="5"/><rect class="cls-3" x="295.28" y="43.26" width="29.16" height="5"/><rect class="cls-7" x="105.98" y="64.88" width="53.55" height="5"/><rect class="cls-4" x="169.53" y="64.88" width="63.13" height="5"/><rect class="cls-3" x="74.72" y="64.88" width="21.26" height="5"/><rect class="cls-4" y="97.33" width="21.8" height="5"/><rect class="cls-3" x="125.02" y="86.51" width="21.8" height="5"/><rect class="cls-6" x="193.13" y="54.07" width="11.8" height="5"/><rect class="cls-2" x="263.48" y="43.26" width="21.8" height="5"/><rect class="cls-7" x="188.27" y="108.14" width="43.63" height="5"/><rect class="cls-8" x="305.65" y="86.51" width="43.63" height="5"/><rect class="cls-2" x="421.15" y="108.14" width="15.67" height="5"/><rect class="cls-3" x="281.83" y="64.88" width="37.99" height="5"/><rect class="cls-5" y="118.95" width="127.55" height="5"/><rect class="cls-3" x="206.27" y="118.95" width="127.55" height="5"/><rect class="cls-7" x="214.93" y="54.07" width="137.55" height="5"/><rect class="cls-7" x="354.27" y="43.26" width="167.32" height="5"/><rect class="cls-3" x="272.71" y="97.33" width="112.19" height="5"/><rect class="cls-5" x="137.55" y="118.95" width="20.43" height="5"/><rect class="cls-8" x="157.84" y="108.14" width="20.43" height="5"/><rect class="cls-3" x="280.05" y="108.14" width="131.1" height="5"/><rect class="cls-3" x="222.45" y="97.33" width="20.43" height="5"/><rect class="cls-7" x="252.88" y="97.33" width="9.83" height="5"/><rect class="cls-4" x="394.9" y="97.33" width="19.83" height="5"/><rect class="cls-7" x="404.32" y="75.7" width="29.83" height="5"/><rect class="cls-4" x="331.26" y="32.44" width="44.62" height="5"/><rect class="cls-3" x="362.48" y="54.07" width="45.66" height="5"/><rect class="cls-3" x="441.53" y="32.44" width="27.01" height="5"/><rect class="cls-2" x="385.88" y="32.44" width="45.66" height="5"/><rect class="cls-3" x="424.73" y="97.33" width="9.83" height="5"/><rect class="cls-7" x="455.15" y="54.07" width="17.9" height="5"/><rect class="cls-3" x="444.06" y="75.7" width="9.83" height="5"/><rect class="cls-8" x="514.23" y="21.63" width="22.83" height="5"/><rect class="cls-6" x="463.89" y="75.7" width="23.83" height="5"/><rect class="cls-3" x="446.81" y="108.14" width="9.83" height="5"/><rect class="cls-8" x="320.31" y="75.7" width="9.83" height="5"/><rect class="cls-8" x="334.44" y="43.26" width="9.83" height="5"/><rect class="cls-3" x="229.77" y="86.51" width="65.88" height="5"/><rect class="cls-2" x="43.55" y="108.14" width="66" height="5"/><rect class="cls-5" x="119.55" y="108.14" width="28.29" height="5"/><rect class="cls-3" x="167.98" y="118.95" width="28.29" height="5"/><rect class="cls-7" x="241.9" y="108.14" width="28.29" height="5"/><rect class="cls-3" x="343.82" y="118.95" width="38.29" height="5"/><rect class="cls-6" x="392.21" y="118.95" width="18.6" height="5"/><rect class="cls-7" x="420.81" y="118.95" width="28.6" height="5"/><rect class="cls-5" x="459.41" y="118.95" width="24.23" height="5"/><rect class="cls-3" x="524.26" y="75.7" width="54.17" height="5"/><rect class="cls-3" x="638.26" y="75.7" width="44.17" height="5"/><rect class="cls-3" x="597.93" y="64.88" width="93.67" height="5"/><rect class="cls-5" x="478.55" y="32.44" width="83.67" height="5"/><rect class="cls-2" x="599.38" y="32.44" width="83.67" height="5"/><rect class="cls-4" x="547.06" y="21.63" width="83.67" height="5"/><rect class="cls-2" x="641.09" y="21.63" width="75.67" height="5"/><rect class="cls-3" x="614.39" y="86.51" width="57.17" height="5"/><rect class="cls-3" x="681.56" y="86.51" width="58.38" height="5"/><rect class="cls-3" x="572.21" y="32.44" width="17.16" height="5"/><rect class="cls-3" x="549.01" y="64.88" width="39.16" height="5"/><rect class="cls-4" x="433.48" y="64.88" width="57.3" height="5"/><rect class="cls-3" x="563.39" y="43.26" width="45.16" height="5"/><rect class="cls-3" x="531.59" y="43.26" width="21.8" height="5"/><rect class="cls-3" x="418.15" y="54.07" width="26.89" height="5"/><rect class="cls-3" x="573.76" y="86.51" width="30.63" height="5"/><rect class="cls-8" x="444.83" y="97.33" width="43.63" height="5"/><rect class="cls-7" x="639.26" y="108.14" width="65.67" height="5"/><rect class="cls-7" x="500.78" y="64.88" width="37.99" height="5"/><rect class="cls-3" x="493.65" y="118.95" width="108.29" height="5"/><rect class="cls-8" x="483.05" y="54.07" width="137.55" height="5"/><rect class="cls-3" x="638.39" y="43.26" width="111.55" height="5"/><rect class="cls-3" x="540.82" y="97.33" width="112.19" height="5"/><rect class="cls-2" x="548.16" y="108.14" width="81.1" height="5"/><rect class="cls-1" x="498.46" y="97.33" width="32.37" height="5"/><rect class="cls-6" x="497.83" y="75.7" width="16.43" height="5"/><rect class="cls-8" x="663.01" y="97.33" width="19.83" height="5"/><rect class="cls-4" x="692.43" y="75.7" width="57.51" height="5"/><rect class="cls-2" x="701.59" y="64.88" width="38.34" height="5"/><rect class="cls-5" x="686.25" y="54.07" width="27.01" height="5"/><rect class="cls-3" x="693.04" y="32.44" width="27.01" height="5"/><rect class="cls-3" x="730.21" y="32.44" width="19.73" height="5"/><rect class="cls-2" x="726.76" y="21.63" width="13.18" height="5"/><rect class="cls-3" x="630.6" y="54.07" width="45.66" height="5"/><rect class="cls-3" x="692.84" y="97.33" width="57.1" height="5"/><rect class="cls-3" x="723.26" y="54.07" width="16.68" height="5"/><rect class="cls-3" x="714.93" y="108.14" width="9.83" height="5"/><rect class="cls-7" x="734.76" y="108.14" width="15.18" height="5"/><rect class="cls-2" x="588.43" y="75.7" width="39.83" height="5"/><rect class="cls-3" x="618.56" y="43.26" width="9.83" height="5"/><rect class="cls-6" x="477.31" y="86.51" width="86.45" height="5"/><rect class="cls-7" x="520.01" y="108.14" width="18.29" height="5"/><rect class="cls-3" x="466.64" y="108.14" width="43.37" height="5"/><rect class="cls-8" x="611.94" y="118.95" width="38.29" height="5"/><rect class="cls-3" x="660.33" y="118.95" width="18.6" height="5"/><rect class="cls-3" x="688.93" y="118.95" width="61.01" height="5"/><rect class="cls-8" x="430.81" y="10.81" width="18.6" height="5"/><rect class="cls-7" x="459.41" y="10.81" width="24.23" height="5"/><rect class="cls-3" x="639.26" width="35.67" height="5"/><rect class="cls-3" x="493.65" y="10.81" width="108.29" height="5"/><rect class="cls-7" x="549.01" width="80.25" height="5"/><rect class="cls-2" x="734.43" width="15.5" height="5"/><rect class="cls-8" x="684.93" width="39.83" height="5"/><rect class="cls-8" x="520.01" width="18.29" height="5"/><rect class="cls-4" x="466.64" width="43.37" height="5"/><rect class="cls-7" x="611.94" y="10.81" width="38.29" height="5"/><rect class="cls-3" x="660.33" y="10.81" width="28.6" height="5"/><rect class="cls-3" x="698.93" y="10.81" width="51.01" height="5"/></g></g></svg>