<svg id="Layer_1" data-name="Layer 1" xmlns="http://www.w3.org/2000/svg" viewBox="0 0 425.2 141.73"><defs><style>.cls-1{fill:#6696ac;}.cls-2{fill:#d8a55b;}.cls-3{fill:#515f6d;}.cls-4{fill:#a6bb75;}.cls-5{fill:#c0bcbb;}.cls-6{fill:#d36d75;}.cls-7{fill:#aa81ac;}.cls-8{fill:#d7734b;}</style></defs><title>HoC-logo-long</title><rect class="cls-1" x="84.39" y="89.94" width="25.3" height="4.71"/><rect class="cls-2" x="59.13" y="81.37" width="34.71" height="4.71"/><rect class="cls-3" x="64.7" y="72.79" width="11.99" height="4.71"/><rect class="cls-4" x="80.98" y="72.79" width="5.56" height="4.71"/><rect class="cls-5" x="98.12" y="81.37" width="5.56" height="4.71"/><rect class="cls-6" x="107.97" y="81.37" width="18.42" height="4.71"/><rect class="cls-7" x="90.83" y="72.79" width="22.71" height="4.71"/><rect class="cls-8" x="93.84" y="64.22" width="14.13" height="4.71"/><rect class="cls-5" x="85.26" y="55.65" width="11.13" height="4.71"/><rect class="cls-4" x="100.68" y="55.65" width="17.13" height="4.71"/><rect class="cls-1" x="59.13" y="64.22" width="30.42" height="4.71"/><rect class="cls-8" x="76.69" y="47.08" width="31.28" height="4.71"/><rect class="cls-3" x="67.7" y="55.65" width="13.28" height="4.71"/><polygon class="cls-3" points="80.1 94.65 39.84 94.65 39.84 66.19 62.89 47.08 72.41 47.08 72.41 51.79 64.59 51.79 44.56 68.4 44.56 89.94 80.1 89.94 80.1 94.65"/><path class="cls-3" d="M163.43,81.95v-8.9h-9v8.9h-4.88V59.78h4.88v8.77h9V59.78h4.88V81.95Z"/><path class="cls-3" d="M183.13,82.33a11.36,11.36,0,0,1-11.75-11.4v-.06a11.79,11.79,0,0,1,23.56-.06v.06A11.46,11.46,0,0,1,183.13,82.33Zm6.71-11.46a6.73,6.73,0,0,0-6.71-7,6.63,6.63,0,0,0-6.65,6.9v.06a6.73,6.73,0,0,0,6.71,7,6.63,6.63,0,0,0,6.65-6.9Z"/><path class="cls-3" d="M207.26,82.3c-6,0-9.6-3.32-9.6-9.85V59.78h4.88V72.32c0,3.61,1.81,5.48,4.78,5.48s4.78-1.8,4.78-5.32V59.78H217V72.29C217,79,213.21,82.3,207.26,82.3Z"/><path class="cls-3" d="M228.57,82.27a14.11,14.11,0,0,1-9.41-3.55L222,75.27A10.17,10.17,0,0,0,228.66,78c2,0,3.2-.79,3.2-2.09v-.06c0-1.23-.76-1.87-4.47-2.82-4.46-1.14-7.35-2.38-7.35-6.78v-.06c0-4,3.23-6.68,7.76-6.68A12.83,12.83,0,0,1,236,62.28L233.51,66a10.4,10.4,0,0,0-5.76-2.19c-1.87,0-2.85.86-2.85,1.93v.06c0,1.46,1,1.93,4.78,2.91,4.5,1.17,7,2.79,7,6.65v.06C236.71,79.8,233.35,82.27,228.57,82.27Z"/><path class="cls-3" d="M239.68,81.95V59.78H256.4v4.34H244.53v4.5H255V73H244.53v4.65h12v4.34Z"/><path class="cls-3" d="M260.68,74.12a8.23,8.23,0,0,1,8-8.08,6.08,6.08,0,0,1,6.47,6.31,8.25,8.25,0,0,1-8,8.06A6.07,6.07,0,0,1,260.68,74.12ZM272,72.42a3.34,3.34,0,0,0-3.52-3.65c-2.71,0-4.72,2.79-4.72,5.24a3.34,3.34,0,0,0,3.52,3.65C270,77.66,272,74.92,272,72.42Z"/><path class="cls-3" d="M279.11,69h-1.75l.73-2.71h1.75l.26-1.12c.78-2.92,2.58-4.28,5.24-4.28a7.14,7.14,0,0,1,2.71.47l-.7,2.63a5,5,0,0,0-1.93-.42,2.22,2.22,0,0,0-2.27,1.93l-.21.78h3.81L286,69h-3.75l-3,11.06h-3.16Z"/><path class="cls-3" d="M301.78,82.33a11.19,11.19,0,0,1-11.37-11.4v-.06A11.27,11.27,0,0,1,302,59.4a11.44,11.44,0,0,1,8.74,3.42l-3.1,3.58a8.18,8.18,0,0,0-5.67-2.5c-3.74,0-6.43,3.1-6.43,6.9v.06c0,3.8,2.63,7,6.43,7,2.53,0,4.09-1,5.83-2.6l3.1,3.14A11.33,11.33,0,0,1,301.78,82.33Z"/><path class="cls-3" d="M323.63,82.33a11.36,11.36,0,0,1-11.75-11.4v-.06a11.79,11.79,0,0,1,23.56-.06v.06A11.46,11.46,0,0,1,323.63,82.33Zm6.71-11.46a6.73,6.73,0,0,0-6.71-7A6.63,6.63,0,0,0,317,70.8v.06a6.74,6.74,0,0,0,6.71,7,6.63,6.63,0,0,0,6.65-6.9Z"/><path class="cls-3" d="M347.16,81.95h-8.65V59.78h8.65c7,0,11.78,4.78,11.78,11v.06C358.94,77.1,354.13,81.95,347.16,81.95Zm6.68-11.08a6.37,6.37,0,0,0-6.68-6.68h-3.77V77.55h3.77a6.32,6.32,0,0,0,6.68-6.62Z"/><path class="cls-3" d="M362,81.95V59.78h16.72v4.34H366.86v4.5h10.45V73H366.86v4.65h12v4.34Z"/></svg>