<svg id="Layer_1" data-name="Layer 1" xmlns="http://www.w3.org/2000/svg" viewBox="0 0 283.46 99.21"><defs><style>.cls-1{fill:#515f6d;}</style></defs><title>HoC-text</title><path class="cls-1" d="M41.68,62.81V54H32.75v8.83H27.91v-22h4.84v8.71h8.93V40.81h4.84v22Z"/><path class="cls-1" d="M61.23,63.19A11.27,11.27,0,0,1,49.57,51.87v-.06A11.38,11.38,0,0,1,61.29,40.43,11.27,11.27,0,0,1,73,51.75v.06A11.38,11.38,0,0,1,61.23,63.19Zm6.66-11.38a6.69,6.69,0,0,0-6.66-6.92,6.58,6.58,0,0,0-6.6,6.85v.06a6.69,6.69,0,0,0,6.66,6.92,6.58,6.58,0,0,0,6.6-6.85Z"/><path class="cls-1" d="M85.18,63.16c-5.91,0-9.52-3.3-9.52-9.78V40.81H80.5V53.26c0,3.58,1.79,5.44,4.75,5.44S90,56.9,90,53.41V40.81h4.84V53.23C94.83,59.89,91.09,63.16,85.18,63.16Z"/><path class="cls-1" d="M106.34,63.13A14,14,0,0,1,97,59.61l2.86-3.43a10.09,10.09,0,0,0,6.57,2.67c2,0,3.18-.79,3.18-2.07v-.06c0-1.23-.75-1.85-4.43-2.8-4.43-1.13-7.29-2.36-7.29-6.73v-.06c0-4,3.21-6.63,7.7-6.63a12.74,12.74,0,0,1,8.17,2.8l-2.51,3.65a10.32,10.32,0,0,0-5.72-2.17c-1.85,0-2.83.85-2.83,1.92v.06c0,1.45.94,1.92,4.75,2.89,4.46,1.16,7,2.77,7,6.6v.06C114.41,60.68,111.08,63.13,106.34,63.13Z"/><path class="cls-1" d="M117.37,62.81v-22H134v4.31H122.18v4.46h10.37v4.31H122.18v4.62h11.95v4.31Z"/><path class="cls-1" d="M138.21,55a8.17,8.17,0,0,1,8-8,6,6,0,0,1,6.42,6.26,8.19,8.19,0,0,1-8,8A6,6,0,0,1,138.21,55Zm11.28-1.68A3.31,3.31,0,0,0,146,49.73c-2.69,0-4.68,2.77-4.68,5.2a3.31,3.31,0,0,0,3.49,3.62C147.45,58.56,149.49,55.84,149.49,53.36Z"/><path class="cls-1" d="M156.51,50h-1.73l.72-2.69h1.73l.26-1.11c.78-2.9,2.56-4.24,5.2-4.24a7.09,7.09,0,0,1,2.69.47l-.7,2.61a5,5,0,0,0-1.92-.41,2.21,2.21,0,0,0-2.25,1.91l-.21.78h3.78L163.37,50h-3.73l-3,11h-3.13Z"/><path class="cls-1" d="M179,63.19a11.11,11.11,0,0,1-11.28-11.32v-.06A11.18,11.18,0,0,1,179.2,40.43a11.35,11.35,0,0,1,8.68,3.4l-3.08,3.55a8.12,8.12,0,0,0-5.63-2.48c-3.71,0-6.38,3.08-6.38,6.85v.06c0,3.77,2.61,6.92,6.38,6.92,2.51,0,4.06-1,5.78-2.58L188,59.26A11.25,11.25,0,0,1,179,63.19Z"/><path class="cls-1" d="M200.7,63.19A11.27,11.27,0,0,1,189,51.87v-.06a11.7,11.7,0,0,1,23.39-.06v.06A11.38,11.38,0,0,1,200.7,63.19Zm6.66-11.38a6.69,6.69,0,0,0-6.66-6.92,6.58,6.58,0,0,0-6.6,6.85v.06a6.69,6.69,0,0,0,6.66,6.92,6.58,6.58,0,0,0,6.6-6.85Z"/><path class="cls-1" d="M224.06,62.81h-8.58v-22h8.58c6.92,0,11.69,4.75,11.69,10.94v.06C235.75,58,231,62.81,224.06,62.81Zm6.63-11a6.32,6.32,0,0,0-6.63-6.63h-3.74V58.44h3.74a6.27,6.27,0,0,0,6.63-6.57Z"/><path class="cls-1" d="M238.8,62.81v-22h16.6v4.31H243.61v4.46H254v4.31H243.61v4.62h11.95v4.31Z"/></svg>