<?xml version="1.0" standalone="no"?>
<!DOCTYPE svg PUBLIC "-//W3C//DTD SVG 20010904//EN"
 "http://www.w3.org/TR/2001/REC-SVG-20010904/DTD/svg10.dtd">
<svg version="1.0" xmlns="http://www.w3.org/2000/svg"
 width="1738.000000pt" height="246.000000pt" viewBox="0 0 1738.000000 246.000000"
 preserveAspectRatio="xMidYMid meet">
<metadata>
Created by potrace 1.15, written by Peter Selinger 2001-2017
</metadata>
<g transform="translate(0.000000,246.000000) scale(0.100000,-0.100000)"
fill="#000000" stroke="none">
<path d="M0 1230 l0 -1230 425 0 425 0 0 140 0 140 145 0 145 0 0 -140 0 -140
45 0 45 0 0 280 0 280 145 0 145 0 0 -280 0 -280 50 0 50 0 0 410 0 410 145 0
145 0 0 -410 0 -410 50 0 50 0 0 530 0 530 145 0 145 0 0 -530 0 -530 7540 0
7540 0 0 1230 0 1230 -8690 0 -8690 0 0 -1230z m1550 776 c0 -133 4 -217 10
-221 6 -3 10 -17 10 -30 0 -13 -4 -27 -10 -30 -5 -3 -10 -24 -10 -46 0 -28 -4
-39 -15 -39 -9 0 -15 9 -15 21 0 15 -27 -8 -105 -89 -96 -101 -111 -112 -185
-142 l-79 -33 5 -71 c3 -39 1 -116 -4 -171 -6 -55 -9 -101 -8 -102 1 -1 24 4
51 12 127 39 179 10 210 -115 10 -41 31 -113 48 -160 16 -47 31 -100 34 -117
12 -78 -28 -119 -85 -89 -40 20 -51 43 -97 189 -20 64 -39 117 -42 117 -19 0
-143 -42 -143 -49 0 -4 14 -45 30 -91 l31 -83 -62 -156 c-34 -86 -71 -166 -81
-178 -31 -33 -66 -38 -94 -12 -36 34 -31 83 18 197 23 53 41 104 40 113 0 8
-24 85 -52 170 -66 198 -78 282 -58 409 17 103 61 230 93 264 11 12 56 34 100
49 203 69 195 64 294 172 51 55 103 104 117 109 l24 10 0 203 c0 174 2 203 15
203 13 0 15 -30 15 -214z m-64 -34 c-3 -3 -69 21 -146 53 -77 32 -139 60 -137
62 2 2 67 30 143 62 l139 59 3 -115 c1 -64 0 -118 -2 -121z m882 162 c17 -12
22 -25 22 -58 0 -55 -18 -71 -82 -71 -40 0 -53 5 -69 24 -25 30 -24 76 1 101
25 25 95 27 128 4z m1257 -264 l0 -245 -35 0 c-28 0 -35 4 -41 25 -5 21 -7 22
-14 8 -19 -46 -149 -49 -194 -4 -25 26 -26 30 -26 144 0 95 3 123 17 145 32
48 146 60 191 20 16 -15 17 -11 17 71 l0 87 43 -3 42 -3 0 -245z m565 6 c0
-243 0 -244 -22 -249 -12 -4 -33 -4 -45 -1 l-23 6 0 237 c0 131 3 241 7 244 3
4 24 7 45 7 l38 0 0 -244z m1330 157 l0 -86 21 19 c30 27 128 26 165 -2 38
-28 42 -47 43 -200 1 -128 0 -132 -21 -137 -12 -4 -33 -4 -45 -1 -22 6 -23 9
-23 133 0 85 -4 131 -12 139 -18 18 -88 15 -110 -5 -16 -14 -18 -33 -18 -138
0 -114 -1 -123 -20 -128 -11 -3 -29 -3 -40 0 -19 5 -20 14 -20 249 l0 244 40
0 40 0 0 -87z m780 -157 c0 -235 -1 -244 -20 -249 -11 -3 -29 -3 -40 0 -19 5
-20 14 -20 249 l0 244 40 0 40 0 0 -244z m190 0 c0 -235 -1 -244 -20 -249 -11
-3 -29 -3 -40 0 -19 5 -20 14 -20 249 l0 244 40 0 40 0 0 -244z m-1162 209 c6
-3 12 -18 12 -35 l0 -30 -90 0 c-127 0 -130 -4 -130 -158 0 -87 4 -123 15
-138 18 -26 71 -35 145 -24 59 8 70 2 70 -37 0 -30 -31 -38 -140 -38 -66 0
-92 4 -117 19 -49 30 -58 63 -58 221 0 179 15 208 120 226 37 6 144 2 173 -6z
m-3569 -72 c21 -43 50 -98 64 -121 l25 -44 63 121 64 121 42 0 43 0 0 -230 0
-230 -40 0 -39 0 -3 153 -3 152 -48 -92 c-45 -88 -49 -93 -80 -93 -30 0 -35 5
-79 88 l-48 87 0 -147 0 -148 -45 0 -45 0 0 230 0 230 45 0 45 0 39 -77z m638
-47 c45 -23 55 -65 51 -216 l-3 -125 -35 0 c-28 0 -35 4 -41 25 -4 14 -7 19
-8 13 -3 -34 -112 -56 -164 -32 -51 23 -71 94 -42 149 22 42 50 53 132 53 73
-1 73 -1 73 26 0 43 -17 51 -107 51 l-83 0 0 34 c0 32 3 35 33 39 60 9 162 0
194 -17z m385 14 c62 -18 68 -35 68 -201 0 -138 -1 -147 -20 -152 -11 -3 -29
-3 -40 0 -19 5 -20 14 -20 125 0 66 -5 128 -10 139 -8 15 -21 19 -60 19 -39 0
-52 -4 -60 -19 -5 -11 -10 -73 -10 -139 0 -115 -1 -120 -22 -125 -12 -4 -33
-4 -45 -1 -23 6 -23 7 -23 180 l0 174 40 0 c34 0 40 -3 40 -22 l0 -21 23 20
c34 32 78 39 139 23z m405 -15 c33 -22 53 -73 53 -134 0 -60 -3 -61 -121 -61
l-90 0 3 -27 c5 -41 40 -55 121 -48 l67 6 0 -34 c0 -31 -4 -35 -31 -41 -55
-11 -148 -7 -184 8 -50 21 -65 59 -65 166 0 133 17 162 105 184 35 8 117 -3
142 -19z m753 9 c49 -20 67 -51 76 -129 5 -44 4 -59 -7 -66 -8 -5 -58 -9 -111
-9 -88 0 -98 -2 -98 -18 0 -10 6 -27 14 -38 13 -16 26 -19 100 -18 l86 2 0
-33 c0 -30 -3 -33 -37 -39 -107 -17 -195 0 -227 45 -22 32 -23 217 -1 258 27
53 129 75 205 45z m747 -16 l23 -21 0 22 c0 20 4 22 38 19 l37 -3 0 -200 c0
-218 -4 -234 -59 -271 -30 -19 -118 -29 -180 -20 -44 7 -46 8 -46 41 l0 35 73
-6 c99 -7 121 5 125 71 3 49 3 49 -17 31 -45 -41 -156 -28 -189 22 -25 38 -25
226 1 265 33 50 147 59 194 15z m1352 22 c19 -5 45 -19 58 -32 22 -21 23 -27
23 -175 l0 -153 -35 0 c-31 0 -35 3 -35 27 0 24 -2 25 -12 10 -28 -36 -117
-49 -167 -22 -54 27 -67 124 -22 168 23 24 92 37 149 30 41 -6 42 -5 42 24 0
45 -15 53 -107 53 l-83 0 0 34 c0 32 3 35 33 39 64 8 123 7 156 -3z m771 -6
c49 -20 67 -51 76 -129 5 -44 4 -59 -7 -66 -8 -5 -58 -9 -111 -9 -88 0 -98 -2
-98 -18 0 -10 6 -27 14 -38 13 -16 26 -19 100 -18 l86 2 0 -33 c0 -30 -3 -33
-37 -39 -107 -17 -195 0 -227 45 -22 32 -23 217 -1 258 27 53 129 75 205 45z
m402 6 c62 -18 68 -35 68 -201 0 -138 -1 -147 -20 -152 -11 -3 -29 -3 -40 0
-19 5 -20 14 -20 125 0 66 -5 128 -10 139 -8 15 -21 19 -60 19 -39 0 -52 -4
-60 -19 -5 -11 -10 -73 -10 -139 0 -115 -1 -120 -22 -125 -12 -4 -33 -4 -45
-1 -23 6 -23 7 -23 180 l0 174 40 0 c34 0 40 -3 40 -22 l0 -21 23 20 c34 32
78 39 139 23z m353 -10 c47 -24 45 -24 45 -5 0 10 11 15 35 15 l35 0 0 -202
c0 -219 -4 -235 -53 -272 -24 -18 -43 -21 -127 -21 -54 0 -101 3 -104 6 -3 3
-3 19 0 35 l6 30 85 -1 c97 0 113 11 113 76 l0 37 -37 -19 c-46 -24 -88 -24
-133 -1 -49 24 -60 52 -60 162 0 110 11 138 60 162 46 23 87 23 135 -2z m434
4 c53 -21 73 -62 69 -139 l-3 -60 -102 -3 c-91 -2 -103 -5 -103 -20 0 -10 6
-27 14 -38 13 -16 26 -19 100 -17 l86 2 0 -33 c0 -31 -3 -34 -37 -40 -64 -10
-142 -7 -177 8 -57 24 -66 47 -66 173 0 102 2 114 23 138 36 43 128 57 196 29z
m-3619 -168 c0 -165 -1 -174 -20 -179 -11 -3 -29 -3 -40 0 -19 5 -20 14 -20
179 l0 174 40 0 40 0 0 -174z m-3255 64 c49 -20 95 -90 95 -147 0 -37 -35
-104 -67 -127 -38 -28 -121 -33 -167 -11 -123 58 -111 244 19 290 38 14 76 12
120 -5z"/>
<path d="M3412 1898 c-7 -7 -12 -44 -12 -95 0 -77 2 -84 25 -99 31 -20 90 -11
105 16 5 10 10 50 10 88 0 54 -4 72 -18 85 -22 20 -92 23 -110 5z"/>
<path d="M4572 1898 c-16 -16 -16 -160 0 -176 18 -18 94 -15 112 4 24 24 22
145 -2 167 -22 20 -92 23 -110 5z"/>
<path d="M7472 1898 c-7 -7 -12 -42 -12 -88 0 -46 5 -81 12 -88 7 -7 31 -12
54 -12 56 0 74 25 74 100 0 75 -18 100 -74 100 -23 0 -47 -5 -54 -12z"/>
</g>
</svg>
