<svg xmlns="http://www.w3.org/2000/svg" viewBox="0 0 245.72 246.1"><defs><style>.cls-1,.cls-13{fill:#fff;}.cls-1,.cls-5{stroke:#bfbcba;}.cls-1,.cls-10,.cls-11,.cls-12,.cls-13,.cls-14,.cls-2,.cls-3,.cls-4,.cls-5,.cls-6,.cls-7,.cls-8,.cls-9{stroke-miterlimit:10;}.cls-1,.cls-14{stroke-width:6px;}.cls-10,.cls-11,.cls-12,.cls-14,.cls-2,.cls-3,.cls-4,.cls-5,.cls-6,.cls-7,.cls-8,.cls-9{fill:none;}.cls-2,.cls-6{stroke:#aa82ad;}.cls-2{stroke-width:4px;}.cls-3{stroke:#6696ad;}.cls-10,.cls-11,.cls-12,.cls-3,.cls-4,.cls-5,.cls-6,.cls-7,.cls-8,.cls-9{stroke-width:5px;}.cls-4{stroke:#adbf7f;}.cls-7{stroke:#d77880;}.cls-8{stroke:#eeaa46;}.cls-9{stroke:#d67249;}.cls-10{stroke:#525e6e;}.cls-11{stroke:#f4f3f3;}.cls-12{stroke:#33557e;}.cls-13,.cls-14{stroke:#565656;}.cls-15{font-size:36px;fill:#565656;font-family:Obvia, Obvia;}</style></defs><title>progress6</title><g id="Lag_2" data-name="Lag 2"><g id="Lag_1-2" data-name="Lag 1"><path class="cls-1" d="M122.86,3A119.8,119.8,0,0,0,19.32,62.46l103.54,59.78Z"/><path class="cls-1" d="M123.39,122.55,226.67,62.92A119.79,119.79,0,0,0,122.86,3V122.24Z"/><path class="cls-1" d="M122.86,122.24,19.32,62.46A120,120,0,0,0,19,182.8l103.82-59.94Z"/><polygon class="cls-1" points="122.86 122.86 123.39 122.55 122.86 122.24 122.86 122.86"/><path class="cls-1" d="M226.67,62.92,123.39,122.55l103.55,59.78a120,120,0,0,0-.27-119.41Z"/><path class="cls-1" d="M122.86,122.86V242.72a119.81,119.81,0,0,0,104.08-60.39L123.39,122.55Z"/><path class="cls-1" d="M19,182.8a119.82,119.82,0,0,0,103.82,59.92V122.86Z"/><line class="cls-2" x1="95.88" y1="13.91" x2="140.63" y2="13.91"/><line class="cls-3" x1="66.13" y1="24.91" x2="120.57" y2="24.91"/><line class="cls-4" x1="125.88" y1="35.66" x2="191.25" y2="35.66"/><line class="cls-5" x1="71.09" y1="35.66" x2="89.38" y2="35.66"/><line class="cls-6" x1="48.63" y1="35.66" x2="61.75" y2="35.66"/><line class="cls-7" x1="156.63" y1="24.91" x2="174.77" y2="24.91"/><line class="cls-8" x1="35.88" y1="47.04" x2="81.88" y2="47.04"/><line class="cls-7" x1="122.86" y1="47.04" x2="205.38" y2="47.04"/><line class="cls-9" x1="28.25" y1="57.66" x2="107.63" y2="57.66"/><line class="cls-6" x1="137.38" y1="57.66" x2="157.88" y2="57.66"/><line class="cls-8" x1="165.7" y1="57.66" x2="212.75" y2="57.66"/><line class="cls-5" x1="31.09" y1="68.04" x2="21" y2="68.04"/><line class="cls-8" x1="35.25" y1="68.29" x2="68.5" y2="68.29"/><line class="cls-8" x1="156.63" y1="68.04" x2="179.75" y2="68.04"/><line class="cls-10" x1="189.23" y1="68.04" x2="212.75" y2="68.04"/><line class="cls-4" x1="16" y1="78.91" x2="41.38" y2="78.91"/><line class="cls-6" x1="51.88" y1="78.91" x2="71.75" y2="78.91"/><line class="cls-5" x1="11.63" y1="89.91" x2="24.75" y2="89.91"/><line class="cls-5" x1="33.75" y1="89.91" x2="64.13" y2="89.91"/><line class="cls-5" x1="169.63" y1="78.79" x2="229.05" y2="78.79"/><line class="cls-7" x1="157.5" y1="89.91" x2="235.88" y2="89.91"/><line class="cls-4" x1="143.05" y1="100.66" x2="186.3" y2="100.66"/><line class="cls-6" x1="196.5" y1="100.66" x2="239.86" y2="100.66"/><line class="cls-6" x1="59.88" y1="100.66" x2="9" y2="100.66"/><line class="cls-3" x1="7.88" y1="112.08" x2="21" y2="112.08"/><line class="cls-3" x1="29.63" y1="112.08" x2="56.38" y2="112.08"/><line class="cls-5" x1="209.48" y1="154.47" x2="233.21" y2="154.47"/><line class="cls-5" x1="200.82" y1="154.47" x2="186.3" y2="154.47"/><line class="cls-3" x1="235.88" y1="144.09" x2="209.07" y2="144.09"/><line class="cls-7" x1="198.57" y1="144.09" x2="158.38" y2="144.09"/><line class="cls-5" x1="239.86" y1="133.47" x2="209.48" y2="133.47"/><line class="cls-8" x1="190.57" y1="123.5" x2="241.44" y2="123.5"/><line class="cls-5" x1="238.94" y1="112.08" x2="212.19" y2="112.08"/><line class="cls-3" x1="96.38" y1="166.22" x2="49.13" y2="166.22"/><line class="cls-8" x1="41.38" y1="154.47" x2="13.07" y2="154.47"/><line class="cls-10" x1="67.95" y1="154.47" x2="49.81" y2="154.47"/><line class="cls-4" x1="72.75" y1="144.09" x2="8.94" y2="144.09"/><line class="cls-9" x1="54.62" y1="133.47" x2="7.57" y2="133.47"/><line class="cls-5" x1="31.09" y1="123.09" x2="7.57" y2="123.09"/><line class="cls-7" x1="38" y1="123.09" x2="72.75" y2="123.09"/><line class="cls-11" x1="30.05" y1="176.79" x2="38.75" y2="176.79"/><line class="cls-8" x1="49.13" y1="176.79" x2="65.38" y2="176.79"/><line class="cls-8" x1="75" y1="177.41" x2="85" y2="177.41"/><line class="cls-5" x1="28" y1="187.04" x2="42.63" y2="187.04"/><line class="cls-6" x1="53.13" y1="187.04" x2="116" y2="187.04"/><line class="cls-8" x1="167.88" y1="166.22" x2="191.63" y2="166.22"/><line class="cls-11" x1="206.36" y1="166.53" x2="230.88" y2="166.53"/><line class="cls-6" x1="156.75" y1="177.41" x2="180.25" y2="177.41"/><line class="cls-11" x1="190.13" y1="177.41" x2="205.13" y2="177.41"/><line class="cls-12" x1="128.38" y1="187.04" x2="167.57" y2="187.04"/><line class="cls-4" x1="177.75" y1="187.04" x2="212.19" y2="187.04"/><line class="cls-8" x1="49.13" y1="209.04" x2="104" y2="209.04"/><line class="cls-6" x1="129.39" y1="209.04" x2="144" y2="209.04"/><line class="cls-6" x1="154.88" y1="209.04" x2="164.38" y2="209.04"/><line class="cls-6" x1="173.63" y1="209.04" x2="191.25" y2="209.04"/><line class="cls-4" x1="66.5" y1="220.54" x2="114.48" y2="220.54"/><line class="cls-5" x1="141.5" y1="220.54" x2="124" y2="220.54"/><line class="cls-7" x1="151.25" y1="220.54" x2="173.9" y2="220.54"/><line class="cls-7" x1="93.13" y1="231.54" x2="120.16" y2="231.54"/><line class="cls-10" x1="38" y1="197.91" x2="80" y2="197.91"/><line class="cls-7" x1="86.88" y1="197.91" x2="110.13" y2="197.91"/><line class="cls-7" x1="120.5" y1="197.91" x2="159.63" y2="197.91"/><line class="cls-9" x1="167.57" y1="197.91" x2="202.63" y2="197.91"/><line class="cls-5" x1="177.75" y1="112.08" x2="204.5" y2="112.08"/><line class="cls-5" x1="79.57" y1="78.91" x2="100.07" y2="78.91"/><line class="cls-6" x1="109.89" y1="78.91" x2="156.94" y2="78.91"/><line class="cls-5" x1="111.5" y1="57.66" x2="117.63" y2="57.66"/><line class="cls-10" x1="63.29" y1="112.08" x2="102.71" y2="112.08"/><line class="cls-4" x1="132.54" y1="112.08" x2="171.72" y2="112.08"/><line class="cls-11" x1="79.57" y1="154.47" x2="116" y2="154.47"/><line class="cls-5" x1="140.84" y1="154.47" x2="155.84" y2="154.47"/><line class="cls-3" x1="72.19" y1="89.91" x2="95.69" y2="89.91"/><line class="cls-3" x1="105.57" y1="89.91" x2="120.57" y2="89.91"/><line class="cls-5" x1="85" y1="123.09" x2="108.5" y2="123.09"/><line class="cls-6" x1="118.38" y1="123.09" x2="133.38" y2="123.09"/><line class="cls-10" x1="173.97" y1="133.47" x2="200.72" y2="133.47"/><line class="cls-10" x1="157.5" y1="133.47" x2="167.94" y2="133.47"/><line class="cls-5" x1="132.46" y1="144.09" x2="147.46" y2="144.09"/><line class="cls-5" x1="62.85" y1="133.47" x2="91.1" y2="133.47"/><line class="cls-11" x1="102.71" y1="133.47" x2="120.16" y2="133.47"/><line class="cls-4" x1="104.23" y1="165.91" x2="129.39" y2="165.91"/><line class="cls-11" x1="144.29" y1="166.53" x2="159.78" y2="166.53"/><line class="cls-5" x1="72.07" y1="100.66" x2="87.07" y2="100.66"/><line class="cls-5" x1="96.73" y1="101" x2="116" y2="101"/><line class="cls-5" x1="128.55" y1="89.91" x2="148.34" y2="89.91"/><line class="cls-12" x1="98.55" y1="144.09" x2="113.55" y2="144.09"/><line class="cls-6" x1="120.16" y1="154.47" x2="135.16" y2="154.47"/><line class="cls-11" x1="111.73" y1="209.04" x2="121.23" y2="209.04"/><line class="cls-3" x1="129.39" y1="231.54" x2="156.42" y2="231.54"/><line class="cls-5" x1="162.13" y1="154.47" x2="177.13" y2="154.47"/><line class="cls-3" x1="128.21" y1="177.41" x2="151.71" y2="177.41"/><line class="cls-11" x1="93.13" y1="177.41" x2="116.63" y2="177.41"/><line class="cls-11" x1="20.88" y1="166.53" x2="37.13" y2="166.53"/><line class="cls-5" x1="110.47" y1="112.05" x2="120.3" y2="112.05"/><line class="cls-5" x1="120.3" y1="101" x2="138.44" y2="101"/><line class="cls-5" x1="79.25" y1="68.04" x2="112.5" y2="68.04"/><line class="cls-3" x1="125.22" y1="68.04" x2="148.34" y2="68.04"/><line class="cls-4" x1="93.21" y1="47.04" x2="111.5" y2="47.04"/><line class="cls-8" x1="122.02" y1="57.66" x2="129.8" y2="57.66"/><line class="cls-5" x1="131.92" y1="24.79" x2="147.13" y2="24.79"/><line class="cls-5" x1="97.96" y1="35.66" x2="113.17" y2="35.66"/><line class="cls-5" x1="149.34" y1="123.5" x2="176.09" y2="123.5"/><path class="cls-13" d="M124.92,122.93l-.5-119.85A119.8,119.8,0,0,0,20.59,63.89l103.79,59.35Z"/><path class="cls-14" d="M122.86,3.38A119.79,119.79,0,0,0,19.32,62.85l103.54,59.78Z"/><path class="cls-14" d="M123.39,122.93,226.67,63.3A119.79,119.79,0,0,0,122.86,3.38V122.63Z"/><path class="cls-14" d="M122.86,122.63,19.32,62.85A120,120,0,0,0,19,183.18l103.82-59.94Z"/><polygon class="cls-14" points="122.86 123.24 123.39 122.94 122.86 122.63 122.86 123.24"/><path class="cls-14" d="M226.67,63.3,123.39,122.93l103.55,59.79a120,120,0,0,0-.27-119.42Z"/><path class="cls-14" d="M122.86,123.24V243.1a119.82,119.82,0,0,0,104.08-60.38L123.39,122.93Z"/><path class="cls-14" d="M19,183.18A119.82,119.82,0,0,0,122.86,243.1V123.24Z"/><text class="cls-15" transform="translate(75.88 64.91)">6</text></g></g></svg>