<svg xmlns="http://www.w3.org/2000/svg" viewBox="0 0 245.72 246.1"><defs><style>.cls-1,.cls-2{fill:#fff;}.cls-1{stroke:#bfbcba;}.cls-1,.cls-3{stroke-miterlimit:10;stroke-width:6px;}.cls-3{fill:none;stroke:#565656;}.cls-4{font-size:36px;fill:#565656;font-family:Obvia, Obvia;}</style></defs><title>Aktiv 4</title><g id="Lag_2" data-name="Lag 2"><g id="Lag_1-2" data-name="Lag 1"><path class="cls-1" d="M122.86,3A119.8,119.8,0,0,0,19.32,62.46l103.54,59.78Z"/><path class="cls-1" d="M123.39,122.55,226.67,62.92A119.79,119.79,0,0,0,122.86,3V122.24Z"/><path class="cls-1" d="M122.86,122.24,19.32,62.46A120,120,0,0,0,19,182.8l103.82-59.94Z"/><polygon class="cls-1" points="122.86 122.86 123.39 122.55 122.86 122.24 122.86 122.86"/><path class="cls-1" d="M226.67,62.92,123.39,122.55l103.55,59.78a120,120,0,0,0-.27-119.41Z"/><path class="cls-1" d="M122.86,122.86V242.72a119.81,119.81,0,0,0,104.08-60.39L123.39,122.55Z"/><path class="cls-1" d="M19,182.8a119.82,119.82,0,0,0,103.82,59.92V122.86Z"/><path class="cls-2" d="M228.55,62.62,21.17,181.53A119.53,119.53,0,0,0,228.55,62.62Z"/><path class="cls-2" d="M225.65,185.41,18.73,65.71a119.53,119.53,0,0,0,206.92,119.7Z"/><path class="cls-2" d="M121.26,244.11l-.7-239a119.53,119.53,0,0,0,.7,239.05Z"/><path class="cls-3" d="M122.86,3.38A119.79,119.79,0,0,0,19.32,62.85l103.54,59.78Z"/><path class="cls-3" d="M123.39,122.93,226.67,63.3A119.79,119.79,0,0,0,122.86,3.38V122.63Z"/><path class="cls-3" d="M122.86,122.63,19.32,62.85A120,120,0,0,0,19,183.18l103.82-59.94Z"/><polygon class="cls-3" points="122.86 123.24 123.39 122.94 122.86 122.63 122.86 123.24"/><path class="cls-3" d="M226.67,63.3,123.39,122.93l103.55,59.79a120,120,0,0,0-.27-119.42Z"/><path class="cls-3" d="M122.86,123.24V243.1a119.82,119.82,0,0,0,104.08-60.38L123.39,122.93Z"/><path class="cls-3" d="M19,183.18A119.82,119.82,0,0,0,122.86,243.1V123.24Z"/><text class="cls-4" transform="translate(147.83 68.41)">1</text></g></g></svg>