<svg xmlns="http://www.w3.org/2000/svg" viewBox="0 0 190.88 426.74"><defs><style>.cls-1{fill:#c1bdbc;}.cls-2{fill:#6697ad;}.cls-3{fill:#515f6d;}.cls-4{fill:#ab81ac;}.cls-5{fill:#a6bc75;}.cls-6{fill:#d36d75;}.cls-7{fill:#d8a65b;}.cls-8{fill:#d8734b;}</style></defs><title>t1</title><g id="Lag_2" data-name="Lag 2"><g id="Layer_1" data-name="Layer 1"><rect class="cls-1" x="175.07" y="378.49" width="15.81" height="5"/><rect class="cls-2" x="91.07" y="378.49" width="54.17" height="5"/><rect class="cls-3" x="60.22" y="367.67" width="63.35" height="5"/><rect class="cls-1" x="81.94" y="389.3" width="44.17" height="5"/><rect class="cls-2" x="136.11" y="389.3" width="54.76" height="5"/><rect class="cls-4" x="133.57" y="367.67" width="37.99" height="5"/><rect class="cls-5" x="58" y="346.05" width="60.31" height="5"/><rect class="cls-4" x="100.49" y="400.12" width="90.22" height="5"/><rect class="cls-1" x="83.54" y="410.93" width="107.33" height="5"/><rect class="cls-6" x="71.77" y="400.12" width="18.72" height="5"/><rect class="cls-2" x="62.87" y="378.49" width="18.2" height="5"/><rect class="cls-7" x="109.5" y="335.23" width="27.71" height="5"/><rect class="cls-6" x="97.24" y="356.86" width="45.66" height="5"/><rect class="cls-1" x="57.75" y="335.23" width="41.75" height="5"/><rect class="cls-1" x="57.75" y="324.42" width="16.98" height="5"/><rect class="cls-8" x="155.24" y="378.49" width="9.83" height="5"/><rect class="cls-4" x="128.31" y="346.05" width="9.83" height="5"/><rect class="cls-1" x="109.5" y="421.74" width="32.06" height="5"/><rect class="cls-3" x="149.64" y="421.74" width="41.24" height="5"/><rect class="cls-1" x="84.79" y="324.42" width="52.09" height="5"/><rect class="cls-1" x="58.53" y="356.86" width="28.71" height="5"/><rect class="cls-4" x="101.07" y="270.35" width="35.81" height="5"/><rect class="cls-1" x="81.9" y="259.54" width="54.79" height="5"/><rect class="cls-1" x="91.94" y="281.16" width="44.67" height="5"/><rect class="cls-3" x="57.25" y="281.16" width="24.69" height="5"/><rect class="cls-1" x="57.75" y="302.79" width="11.49" height="5"/><rect class="cls-8" y="237.91" width="91.11" height="5"/><rect class="cls-2" x="105.49" y="291.98" width="31.39" height="5"/><rect class="cls-1" x="79.24" y="302.79" width="57.64" height="5"/><rect class="cls-5" x="75.66" y="291.98" width="19.83" height="5"/><rect class="cls-1" x="55.47" y="270.35" width="35.6" height="5"/><rect class="cls-4" x="99.5" y="227.09" width="21.75" height="5"/><rect class="cls-6" x="105.24" y="248.72" width="29.89" height="5"/><rect class="cls-1" y="227.09" width="43.85" height="5"/><rect class="cls-3" x="53.84" y="227.09" width="35.66" height="5"/><rect class="cls-1" x="46.49" y="216.28" width="51.01" height="5"/><rect class="cls-1" y="216.28" width="36.4" height="5"/><rect class="cls-1" x="57.75" y="291.98" width="7.91" height="5"/><rect class="cls-2" x="30.33" y="248.72" width="17.9" height="5"/><rect class="cls-1" x="101.11" y="237.91" width="29.39" height="5"/><rect class="cls-7" x="103.27" y="313.6" width="33.6" height="5"/><rect class="cls-5" x="57.75" y="313.6" width="35.42" height="5"/><rect class="cls-8" x="50.27" y="259.54" width="21.63" height="5"/><rect class="cls-5" x="58.34" y="248.72" width="36.89" height="5"/><rect class="cls-6" x="91.07" y="162.21" width="45.61" height="5"/><rect class="cls-1" x="54.62" y="151.4" width="63.53" height="5"/><rect class="cls-5" x="81.94" y="173.02" width="52.19" height="5"/><rect class="cls-4" x="18.74" y="173.02" width="53.2" height="5"/><rect class="cls-8" x="48.57" y="194.65" width="68.31" height="5"/><rect class="cls-1" x="57.75" y="129.77" width="55.52" height="5"/><rect class="cls-3" x="90.66" y="183.84" width="38.32" height="5"/><rect class="cls-3" x="49.2" y="162.21" width="31.86" height="5"/><rect class="cls-2" x="109.5" y="118.95" width="27.17" height="5"/><rect class="cls-1" x="86.24" y="140.58" width="50.33" height="5"/><rect class="cls-3" x="57.8" y="118.95" width="41.7" height="5"/><rect class="cls-1" x="57.75" y="108.14" width="16.98" height="5"/><rect class="cls-1" x="70.83" y="183.84" width="9.83" height="5"/><rect class="cls-1" x="28.74" y="194.65" width="9.83" height="5"/><rect class="cls-7" x="126.9" y="151.4" width="9.83" height="5"/><rect class="cls-3" x="122.9" y="129.77" width="13.83" height="5"/><rect class="cls-1" x="74.57" y="205.47" width="14.3" height="5"/><rect class="cls-1" x="35.97" y="205.47" width="28.6" height="5"/><rect class="cls-2" y="205.47" width="25.97" height="5"/><rect class="cls-1" x="84.79" y="108.14" width="51.94" height="5"/><rect class="cls-1" x="57.12" y="140.58" width="19.11" height="5"/><rect class="cls-3" y="183.84" width="60.55" height="5"/><rect class="cls-1" y="194.65" width="18.74" height="5"/><rect class="cls-7" x="91.07" y="54.07" width="49.87" height="5"/><rect class="cls-1" x="61.9" y="43.26" width="93.67" height="5"/><rect class="cls-4" x="81.94" y="64.88" width="34.17" height="5"/><rect class="cls-5" x="58.5" y="64.88" width="13.44" height="5"/><rect class="cls-7" x="164.12" y="10.81" width="26.58" height="5"/><rect class="cls-1" x="160.94" y="21.63" width="29.69" height="5"/><rect class="cls-1" x="132.95" y="32.44" width="57.75" height="5"/><rect class="cls-2" x="126.11" y="64.88" width="15" height="5"/><rect class="cls-7" x="57.75" y="86.51" width="8.49" height="5"/><rect class="cls-5" x="165.57" y="43.26" width="25.06" height="5"/><rect class="cls-1" x="70.96" y="21.63" width="60.15" height="5"/><rect class="cls-1" x="100.49" y="75.7" width="37.31" height="5"/><rect class="cls-2" x="76.24" y="86.51" width="60.89" height="5"/><rect class="cls-3" x="57.8" y="75.7" width="32.69" height="5"/><rect class="cls-1" x="59.5" y="54.07" width="21.57" height="5"/><rect class="cls-3" x="109.5" y="10.81" width="44.62" height="5"/><rect class="cls-7" x="65.22" y="32.44" width="57.68" height="5"/><rect class="cls-5" x="81.3" y="10.81" width="18.2" height="5"/><rect class="cls-1" x="145.24" y="54.07" width="12.55" height="5"/><rect class="cls-5" x="141.11" y="21.63" width="9.83" height="5"/><rect class="cls-6" x="113.27" y="97.33" width="23.45" height="5"/><rect class="cls-1" x="79.57" y="97.33" width="23.6" height="5"/><rect class="cls-5" x="57.75" y="97.33" width="11.82" height="5"/><rect class="cls-1" x="107.44" width="83.19" height="5"/></g></g></svg>