<svg xmlns="http://www.w3.org/2000/svg" viewBox="0 0 190.88 426.74"><defs><style>.cls-1{fill:#c1bdbc;}.cls-2{fill:#6697ad;}.cls-3{fill:#d36d75;}.cls-4{fill:#ab81ac;}.cls-5{fill:#d8a65b;}.cls-6{fill:#a6bc75;}.cls-7{fill:#d8734b;}.cls-8{fill:#515f6d;}</style></defs><title>t2</title><g id="Lag_2" data-name="Lag 2"><g id="Layer_1" data-name="Layer 1"><rect class="cls-1" y="43.26" width="15.81" height="5"/><rect class="cls-2" x="45.64" y="43.26" width="54.17" height="5"/><rect class="cls-3" x="67.31" y="54.07" width="63.35" height="5"/><rect class="cls-1" x="64.76" y="32.44" width="44.17" height="5"/><rect class="cls-2" y="32.44" width="54.76" height="5"/><rect class="cls-4" x="19.32" y="54.07" width="37.99" height="5"/><rect class="cls-5" x="72.57" y="75.7" width="60.31" height="5"/><rect class="cls-1" x="0.17" y="21.63" width="90.22" height="5"/><rect class="cls-6" y="10.81" width="107.33" height="5"/><rect class="cls-3" x="100.39" y="21.63" width="18.72" height="5"/><rect class="cls-2" x="109.81" y="43.26" width="18.2" height="5"/><rect class="cls-5" x="53.67" y="86.51" width="27.71" height="5"/><rect class="cls-3" x="47.98" y="64.88" width="45.66" height="5"/><rect class="cls-1" x="91.38" y="86.51" width="41.75" height="5"/><rect class="cls-1" x="116.14" y="97.33" width="16.98" height="5"/><rect class="cls-7" x="25.81" y="43.26" width="9.83" height="5"/><rect class="cls-4" x="52.74" y="75.7" width="9.83" height="5"/><rect class="cls-1" x="49.31" width="32.06" height="5"/><rect class="cls-5" width="41.24" height="5"/><rect class="cls-1" x="54" y="97.33" width="52.09" height="5"/><rect class="cls-1" x="103.64" y="64.88" width="28.71" height="5"/><rect class="cls-4" x="54" y="151.4" width="35.81" height="5"/><rect class="cls-1" x="54.18" y="162.21" width="54.79" height="5"/><rect class="cls-1" x="54.26" y="140.58" width="44.67" height="5"/><rect class="cls-8" x="108.94" y="140.58" width="24.69" height="5"/><rect class="cls-1" x="121.64" y="118.95" width="11.49" height="5"/><rect class="cls-2" x="99.77" y="183.84" width="91.11" height="5"/><rect class="cls-2" x="54" y="129.77" width="31.39" height="5"/><rect class="cls-1" x="54" y="118.95" width="57.64" height="5"/><rect class="cls-6" x="95.39" y="129.77" width="19.83" height="5"/><rect class="cls-1" x="99.81" y="151.4" width="35.6" height="5"/><rect class="cls-4" x="69.63" y="194.65" width="21.75" height="5"/><rect class="cls-3" x="55.75" y="173.02" width="29.89" height="5"/><rect class="cls-1" x="147.02" y="194.65" width="43.85" height="5"/><rect class="cls-8" x="101.38" y="194.65" width="35.66" height="5"/><rect class="cls-1" x="93.38" y="205.47" width="51.01" height="5"/><rect class="cls-1" x="154.47" y="205.47" width="36.4" height="5"/><rect class="cls-1" x="125.22" y="129.77" width="7.91" height="5"/><rect class="cls-2" x="142.64" y="173.02" width="17.9" height="5"/><rect class="cls-1" x="60.38" y="183.84" width="29.39" height="5"/><rect class="cls-1" x="54" y="108.14" width="33.6" height="5"/><rect class="cls-6" x="97.71" y="108.14" width="35.42" height="5"/><rect class="cls-7" x="118.97" y="162.21" width="21.63" height="5"/><rect class="cls-6" x="95.64" y="173.02" width="36.89" height="5"/><rect class="cls-3" x="54.2" y="259.54" width="45.61" height="5"/><rect class="cls-1" x="72.72" y="270.35" width="63.53" height="5"/><rect class="cls-7" x="56.75" y="248.72" width="52.19" height="5"/><rect class="cls-4" x="118.94" y="248.72" width="53.2" height="5"/><rect class="cls-7" x="74" y="227.09" width="68.31" height="5"/><rect class="cls-1" x="77.6" y="291.98" width="55.52" height="5"/><rect class="cls-8" x="61.9" y="237.91" width="38.32" height="5"/><rect class="cls-8" x="109.81" y="259.54" width="31.86" height="5"/><rect class="cls-2" x="54.2" y="302.79" width="27.17" height="5"/><rect class="cls-1" x="54.31" y="281.16" width="50.33" height="5"/><rect class="cls-8" x="91.38" y="302.79" width="41.7" height="5"/><rect class="cls-1" x="116.14" y="313.6" width="16.98" height="5"/><rect class="cls-1" x="110.22" y="237.91" width="9.83" height="5"/><rect class="cls-1" x="152.31" y="227.09" width="9.83" height="5"/><rect class="cls-5" x="54.15" y="270.35" width="9.83" height="5"/><rect class="cls-8" x="54.15" y="291.98" width="13.83" height="5"/><rect class="cls-1" x="102.01" y="216.28" width="14.3" height="5"/><rect class="cls-1" x="126.31" y="216.28" width="28.6" height="5"/><rect class="cls-2" x="164.91" y="216.28" width="25.97" height="5"/><rect class="cls-1" x="54.15" y="313.6" width="51.94" height="5"/><rect class="cls-1" x="114.64" y="281.16" width="19.11" height="5"/><rect class="cls-1" x="130.32" y="237.91" width="60.55" height="5"/><rect class="cls-1" x="172.14" y="227.09" width="18.74" height="5"/><rect class="cls-5" x="49.94" y="367.67" width="49.87" height="5"/><rect class="cls-1" x="35.31" y="378.49" width="93.67" height="5"/><rect class="cls-4" x="74.76" y="356.86" width="34.17" height="5"/><rect class="cls-6" x="118.94" y="356.86" width="13.44" height="5"/><rect class="cls-6" x="0.18" y="410.93" width="26.58" height="5"/><rect class="cls-1" x="0.25" y="400.12" width="29.69" height="5"/><rect class="cls-1" x="0.18" y="389.3" width="57.75" height="5"/><rect class="cls-2" x="49.77" y="356.86" width="15" height="5"/><rect class="cls-5" x="124.64" y="335.23" width="8.49" height="5"/><rect class="cls-6" x="0.25" y="378.49" width="25.06" height="5"/><rect class="cls-1" x="59.77" y="400.12" width="60.15" height="5"/><rect class="cls-1" x="53.08" y="346.05" width="37.31" height="5"/><rect class="cls-2" x="53.75" y="335.23" width="60.89" height="5"/><rect class="cls-8" x="100.39" y="346.05" width="32.69" height="5"/><rect class="cls-1" x="109.81" y="367.67" width="21.57" height="5"/><rect class="cls-8" x="36.75" y="410.93" width="44.62" height="5"/><rect class="cls-5" x="67.98" y="389.3" width="57.68" height="5"/><rect class="cls-6" x="91.38" y="410.93" width="18.2" height="5"/><rect class="cls-1" x="33.08" y="367.67" width="12.55" height="5"/><rect class="cls-6" x="39.94" y="400.12" width="9.83" height="5"/><rect class="cls-3" x="54.15" y="324.42" width="23.45" height="5"/><rect class="cls-1" x="87.71" y="324.42" width="23.6" height="5"/><rect class="cls-6" x="121.31" y="324.42" width="11.82" height="5"/><rect class="cls-8" x="0.25" y="421.74" width="83.19" height="5"/></g></g></svg>